<svg width="554" height="427" viewBox="0 0 554 427" fill="none" xmlns="http://www.w3.org/2000/svg">
<title>Quickstart Logo</title>
<path d="M27.0547 394.586L19.9648 395.23C18.3242 395.23 17.2109 394.645 16.625 393.473C16.0391 392.301 16.0195 391.402 16.5664 390.777C17.1133 390.113 18.0508 389.508 19.3789 388.961C20.7461 388.414 22.4062 387.828 24.3594 387.203C26.3125 386.578 28.5195 385.68 30.9805 384.508C33.4414 383.336 36.0977 381.578 38.9492 379.234C41.8008 376.852 44.5938 374.098 47.3281 370.973C50.0625 367.809 52.6602 364.332 55.1211 360.543C57.582 356.754 59.7305 352.809 61.5664 348.707C65.5898 339.723 67.6016 331.324 67.6016 323.512C67.6016 314.84 64.2812 310.504 57.6406 310.504C52.6797 310.504 47.3867 313.141 41.7617 318.414C36.4883 323.297 32.0352 329.488 28.4023 336.988C24.6523 344.605 22.7773 351.754 22.7773 358.434C22.7773 361.949 23.207 364.625 24.0664 366.461C25.1992 368.805 26.8203 371.227 28.9297 373.727C29.0469 373.961 29.1055 374.312 29.1055 374.781C29.1055 375.211 28.8906 375.777 28.4609 376.48C28.0703 377.184 27.543 377.828 26.8789 378.414C25.1992 379.898 23.5195 380.641 21.8398 380.641C20.1602 380.641 18.5781 380.133 17.0938 379.117C15.6484 378.062 14.3789 376.656 13.2852 374.898C10.8242 371.109 9.59375 366.793 9.59375 361.949C9.59375 357.105 10.1797 352.281 11.3516 347.477C12.5234 342.672 14.1445 338.082 16.2148 333.707C18.3242 329.332 20.8438 325.27 23.7734 321.52C26.7422 317.73 30.0039 314.469 33.5586 311.734C41.1367 305.836 49.1641 302.887 57.6406 302.887C67.9141 302.887 74.7305 307.789 78.0898 317.594C79.2617 321.031 79.8477 324.977 79.8477 329.43C79.8477 333.844 79.2617 338.062 78.0898 342.086C76.957 346.109 75.4141 350.035 73.4609 353.863C71.5078 357.691 69.2422 361.363 66.6641 364.879C64.125 368.395 61.4492 371.617 58.6367 374.547C52.9727 380.484 47.4648 384.82 42.1133 387.555C45.4727 388.57 49.0273 390.191 52.7773 392.418L61.5078 397.75C66.2734 400.719 69.9648 402.652 72.582 403.551C75.2383 404.449 77.25 404.898 78.6172 404.898C80.0234 404.898 81.0195 404.762 81.6055 404.488C82.1914 404.215 82.6992 403.922 83.1289 403.609L84.3008 402.672C84.6523 402.398 85.0234 402.262 85.4141 402.262C86.4688 402.262 86.9961 403.023 86.9961 404.547C86.9961 406.07 86.7031 407.398 86.1172 408.531C85.5703 409.664 84.7695 410.68 83.7148 411.578C81.332 413.688 78.3242 414.742 74.6914 414.742C71.0586 414.742 67.8359 414.234 65.0234 413.219C62.2109 412.242 59.6133 411.012 57.2305 409.527C54.8477 408.043 52.5625 406.422 50.375 404.664C48.2266 402.906 45.9805 401.285 43.6367 399.801C38.207 396.324 32.6797 394.586 27.0547 394.586ZM137.914 382.457C138.812 382.457 139.262 382.906 139.262 383.805C139.262 387.203 137.582 390.055 134.223 392.359C131.957 393.844 129.301 394.586 126.254 394.586C123.754 394.586 121.84 394 120.512 392.828C118.129 390.719 116.938 388.141 116.938 385.094C116.938 381.227 118.559 375.309 121.801 367.34C115.785 375.465 111.566 380.875 109.145 383.57C106.723 386.227 104.613 388.297 102.816 389.781C98.9102 392.984 95.375 394.586 92.2109 394.586C87.3672 394.586 84.1445 392.496 82.543 388.316C82.0742 387.027 81.8398 385.562 81.8398 383.922C81.8398 382.242 82.1133 380.387 82.6602 378.355C83.2461 376.285 83.9883 374.137 84.8867 371.91C85.7852 369.684 86.7617 367.398 87.8164 365.055L90.9805 358.023C95.043 349 96.5469 343.648 95.4922 341.969C95.0234 341.227 94.1445 340.484 92.8555 339.742C92.3867 339.469 92.1523 339 92.1523 338.336C92.1523 337.633 92.4258 336.969 92.9727 336.344C93.5586 335.719 94.3008 335.172 95.1992 334.703C97.1133 333.805 99.0273 333.355 100.941 333.355C102.855 333.355 104.301 333.57 105.277 334C106.293 334.391 107.113 334.898 107.738 335.523C109.027 336.812 109.672 338.238 109.672 339.801C109.672 341.363 109.418 343.121 108.91 345.074C108.402 346.988 107.738 349.078 106.918 351.344C106.098 353.609 105.199 355.953 104.223 358.375C101.527 364.703 99.7109 368.883 98.7734 370.914L96.6055 375.426C95.3945 378.121 94.7891 380.016 94.7891 381.109C94.7891 382.203 94.9648 382.984 95.3164 383.453C95.668 383.883 96.293 384.098 97.1914 384.098C98.1289 384.098 99.2031 383.668 100.414 382.809C101.625 381.949 102.953 380.797 104.398 379.352C105.844 377.906 107.348 376.246 108.91 374.371C110.473 372.457 111.996 370.484 113.48 368.453C116.41 364.469 118.559 361.266 119.926 358.844C128.207 344.195 132.621 336.539 133.168 335.875C134.418 334.195 135.688 333.355 136.977 333.355C138.305 333.355 139.457 333.512 140.434 333.824C141.41 334.098 142.25 334.508 142.953 335.055C144.594 336.266 145.121 337.477 144.535 338.688C135.004 358.57 129.867 371.07 129.125 376.188C128.93 377.945 128.832 379.156 128.832 379.82C128.832 382.789 129.73 384.273 131.527 384.273C133.207 384.273 134.594 383.98 135.688 383.395C136.781 382.77 137.523 382.457 137.914 382.457ZM181.332 319.645C180.473 320.543 179.496 321.285 178.402 321.871C177.309 322.418 176.156 322.77 174.945 322.926C173.734 323.043 172.582 322.848 171.488 322.34C170.434 321.832 169.516 321.109 168.734 320.172C167.055 318.219 166.215 316.246 166.215 314.254C166.215 312.262 166.527 310.777 167.152 309.801C167.816 308.785 168.637 307.965 169.613 307.34C171.488 306.129 173.246 305.523 174.887 305.523C176.566 305.523 177.855 305.641 178.754 305.875C179.691 306.109 180.551 306.5 181.332 307.047C183.246 308.336 184.203 309.918 184.203 311.793C184.203 313.629 183.93 315.172 183.383 316.422C182.875 317.633 182.191 318.707 181.332 319.645ZM169.32 383.043C170.336 383.043 170.844 383.707 170.844 385.035C170.844 386.793 170.043 388.609 168.441 390.484C166.098 393.219 162.953 394.586 159.008 394.586C154.477 394.586 151.371 392.75 149.691 389.078C149.066 387.789 148.754 386.227 148.754 384.391C148.754 382.555 149.066 380.523 149.691 378.297C150.355 376.031 151.156 373.668 152.094 371.207C153.07 368.707 154.125 366.188 155.258 363.648L158.363 356.266C160.629 350.758 161.762 347.125 161.762 345.367C161.762 343.609 161.566 342.457 161.176 341.91C160.824 341.324 160.434 340.875 160.004 340.562L158.832 339.742C158.441 339.469 158.246 339 158.246 338.336C158.246 337.633 158.5 336.969 159.008 336.344C159.555 335.719 160.258 335.172 161.117 334.703C162.875 333.805 164.926 333.355 167.27 333.355C173.012 333.355 175.883 334.859 175.883 337.867C175.883 341.383 174.965 345.406 173.129 349.938C171.293 354.43 169.73 358.062 168.441 360.836L164.926 368.922C162.348 374.859 161.059 379.137 161.059 381.754C161.059 383.473 161.918 384.332 163.637 384.332C165.316 384.332 166.586 384.117 167.445 383.688C168.305 383.258 168.93 383.043 169.32 383.043ZM183.793 373.785C183.871 370.387 184.398 367.008 185.375 363.648C186.391 360.25 187.719 357.047 189.359 354.039C191.039 351.031 193.012 348.258 195.277 345.719C197.582 343.18 200.082 340.992 202.777 339.156C208.402 335.289 214.32 333.355 220.531 333.355C226.938 333.355 231.293 335.914 233.598 341.031C234.418 342.867 234.789 344.957 234.711 347.301C234.672 349.605 234.301 351.734 233.598 353.688C232.895 355.602 232.016 357.32 230.961 358.844C228.578 362.281 226.176 364 223.754 364C221.059 364 219.066 363.258 217.777 361.773C216.645 360.484 216.293 358.98 216.723 357.262C216.84 356.754 217.191 356.305 217.777 355.914C218.363 355.484 219.105 354.82 220.004 353.922C222.543 351.266 223.871 348.16 223.988 344.605C224.066 342.184 222.582 340.973 219.535 340.973C216.254 340.973 212.816 342.809 209.223 346.48C203.988 351.832 200.297 358.688 198.148 367.047C196.273 374.312 196.625 379.625 199.203 382.984C200.727 384.938 202.797 385.914 205.414 385.914C209.828 385.914 214.086 384.352 218.188 381.227C219.438 380.25 220.453 379.254 221.234 378.238C222.016 377.223 222.738 376.715 223.402 376.715C224.066 376.715 224.613 377.047 225.043 377.711C225.512 378.336 225.746 379.156 225.746 380.172C225.746 382.477 224.711 384.742 222.641 386.969C217.328 392.047 210.941 394.586 203.48 394.586C197.113 394.586 192.191 392.77 188.715 389.137C185.277 385.543 183.637 380.426 183.793 373.785ZM278.715 394.527C269.848 394.527 262.777 386.109 257.504 369.273C255.434 373.102 253.715 376.578 252.348 379.703L248.832 387.672C247.816 389.859 246.859 391.559 245.961 392.77C245.102 393.98 244.125 394.586 243.031 394.586C241.938 394.586 240.941 394.391 240.043 394C239.145 393.648 238.363 393.18 237.699 392.594C236.332 391.344 235.648 389.977 235.648 388.492C235.648 387.906 236.059 386.754 236.879 385.035L239.223 380.289C246.527 365.25 253.148 346.188 259.086 323.102C261.273 314.586 262.855 306.93 263.832 300.133C264.262 296.852 265.863 295.211 268.637 295.211C270.277 295.211 271.645 295.641 272.738 296.5C274.848 298.18 275.863 299.996 275.785 301.949C275.707 303.863 275.434 306.031 274.965 308.453C274.535 310.875 273.949 313.531 273.207 316.422C272.465 319.273 271.625 322.262 270.688 325.387C268.148 333.551 266.254 339.371 265.004 342.848L259.496 358.023C258.793 359.82 258.246 361.129 257.855 361.949C266.918 358.355 273.715 354.293 278.246 349.762C280.98 347.027 282.348 344.469 282.348 342.086C282.348 340.875 281.938 339.996 281.117 339.449C280.336 338.902 279.789 338.492 279.477 338.219C279.203 337.906 279.184 337.379 279.418 336.637C279.691 335.855 280.434 335.113 281.645 334.41C282.855 333.707 284.32 333.355 286.039 333.355C287.758 333.355 289.184 333.512 290.316 333.824C291.488 334.137 292.504 334.625 293.363 335.289C295.277 336.656 296.234 338.59 296.234 341.09C296.234 343.59 295.707 345.895 294.652 348.004C293.598 350.074 291.957 352.086 289.73 354.039C285.316 357.789 278.246 361.422 268.52 364.938C269.73 370.133 271.957 374.703 275.199 378.648C278.285 382.398 281.117 384.273 283.695 384.273C285.062 384.273 286.234 384.039 287.211 383.57L289.32 382.516C289.75 382.281 290.16 382.164 290.551 382.164C291.527 382.164 292.016 382.75 292.016 383.922C292.016 384.938 291.84 385.836 291.488 386.617C291.137 387.359 290.629 388.16 289.965 389.02C289.34 389.879 288.52 390.719 287.504 391.539C284.965 393.531 282.035 394.527 278.715 394.527ZM296.879 383.688C296.879 382.477 297.133 381.363 297.641 380.348C298.188 379.293 298.852 378.414 299.633 377.711C301.273 376.188 302.992 375.426 304.789 375.426C306.352 375.426 307.133 376.227 307.133 377.828C307.133 381.891 308.48 384.723 311.176 386.324C312.152 386.91 313.168 387.203 314.223 387.203C315.277 387.203 316.176 387.086 316.918 386.852C317.66 386.617 318.344 386.246 318.969 385.738C320.375 384.605 321.078 383.258 321.078 381.695C321.078 380.133 320.727 378.707 320.023 377.418C319.32 376.09 318.441 374.703 317.387 373.258L314.047 368.57C309.359 362.32 307.016 356.559 307.016 351.285C307.016 346.91 308.871 342.945 312.582 339.391C316.801 335.367 322.211 333.355 328.812 333.355C334.594 333.355 339.105 334.781 342.348 337.633C345.004 339.938 346.332 342.574 346.332 345.543C346.332 348.629 345.16 351.09 342.816 352.926C340.707 354.566 338.598 355.172 336.488 354.742C335.551 354.547 334.828 354.078 334.32 353.336C333.812 352.555 333.715 351.676 334.027 350.699C334.34 349.723 334.496 348.707 334.496 347.652C334.496 346.598 334.301 345.621 333.91 344.723C333.52 343.824 332.992 343.062 332.328 342.438C330.961 341.148 329.516 340.504 327.992 340.504C326.508 340.504 325.277 340.68 324.301 341.031C323.324 341.344 322.465 341.812 321.723 342.438C320.199 343.844 319.438 345.582 319.438 347.652C319.438 349.684 319.789 351.441 320.492 352.926C321.195 354.41 322.055 355.895 323.07 357.379C324.125 358.863 325.258 360.367 326.469 361.891C327.68 363.414 328.793 365.016 329.809 366.695C332.27 370.641 333.5 374.117 333.5 377.125C333.5 380.094 332.875 382.594 331.625 384.625C330.375 386.617 328.754 388.336 326.762 389.781C322.504 392.945 317.738 394.527 312.465 394.527C307.426 394.527 303.441 393.316 300.512 390.895C298.09 388.863 296.879 386.461 296.879 383.688ZM384.652 378.648C385.785 378.648 386.352 379.41 386.352 380.934C386.352 382.223 385.961 383.473 385.18 384.684C384.125 386.949 382.016 389.098 378.852 391.129C375.258 393.434 371.645 394.586 368.012 394.586C361.723 394.586 357.738 391.773 356.059 386.148C354.066 379.469 357.055 365.309 365.023 343.668C360.531 343.277 358.09 342.496 357.699 341.324C357.582 340.973 357.523 340.602 357.523 340.211C357.523 339.781 357.699 339.293 358.051 338.746C358.441 338.199 358.93 337.672 359.516 337.164C360.883 336.031 362.27 335.465 363.676 335.465H368.305C372.523 325.582 375.531 319.957 377.328 318.59C378.188 317.965 379.145 317.652 380.199 317.652C381.254 317.652 382.133 317.789 382.836 318.062C383.539 318.336 384.164 318.727 384.711 319.234C385.961 320.406 386.586 321.715 386.586 323.16C386.586 323.941 386.352 324.84 385.883 325.855L381.547 335.289H382.953C385.375 335.289 387.328 335.27 388.812 335.23C388.812 335.23 389.926 335.211 392.152 335.172C392.895 335.133 393.812 335.113 394.906 335.113C396.039 335.113 396.605 335.523 396.605 336.344C396.605 341.5 390.512 344.078 378.324 344.078H377.855L373.871 354.391C369.379 366.578 367.133 375.113 367.133 379.996C367.133 381.363 367.445 382.438 368.07 383.219C368.695 383.961 369.867 384.332 371.586 384.332C373.305 384.332 374.867 384.039 376.273 383.453C377.68 382.867 378.91 382.223 379.965 381.52C381.02 380.777 381.918 380.113 382.66 379.527C383.441 378.941 384.105 378.648 384.652 378.648ZM438.91 378.414C438.91 382.008 440.18 383.805 442.719 383.805C444.477 383.805 445.922 383.531 447.055 382.984C448.227 382.438 449.008 382.164 449.398 382.164C450.219 382.164 450.629 382.594 450.629 383.453C450.629 386.812 448.871 389.703 445.355 392.125C441.645 394.664 437.855 395.289 433.988 394C431.449 393.102 429.574 391.168 428.363 388.199C427.777 386.676 427.484 385.289 427.484 384.039C427.484 382.008 427.68 379.859 428.07 377.594C424.438 385.016 419.926 390.133 414.535 392.945C412.387 394.039 410.102 394.586 407.68 394.586C405.258 394.586 403.148 394.098 401.352 393.121C399.594 392.105 398.09 390.719 396.84 388.961C394.301 385.289 393.148 380.68 393.383 375.133C393.617 368.18 395.668 361.363 399.535 354.684C403.09 348.434 407.582 343.336 413.012 339.391C418.441 335.367 423.52 333.355 428.246 333.355C432.973 333.355 436.781 335.523 439.672 339.859C442.367 335.523 444.75 333.355 446.82 333.355C449.047 333.355 450.727 333.766 451.859 334.586C454.008 336.148 454.77 337.516 454.145 338.688C444.34 358.766 439.301 371.266 439.027 376.188C438.949 376.891 438.91 377.633 438.91 378.414ZM406.391 378.648C406.391 383.336 407.895 385.68 410.902 385.68C413.207 385.68 416.039 383.727 419.398 379.82C424.32 374.078 428.676 366.344 432.465 356.617C433.676 353.57 434.691 350.523 435.512 347.477C435.355 344.82 434.242 342.867 432.172 341.617C431.469 341.188 430.414 340.973 429.008 340.973C427.641 340.973 426.02 341.48 424.145 342.496C422.309 343.512 420.512 344.898 418.754 346.656C417.035 348.414 415.414 350.504 413.891 352.926C412.406 355.309 411.098 357.906 409.965 360.719C407.582 366.734 406.391 372.711 406.391 378.648ZM458.949 392.594C458.168 392.008 457.543 391.363 457.074 390.66C456.605 389.918 456.352 389.293 456.312 388.785C456.273 388.238 456.371 387.594 456.605 386.852C456.879 386.07 457.23 385.133 457.66 384.039C465.629 364.43 469.613 351.266 469.613 344.547C469.496 342.672 468.852 341.344 467.68 340.562L466.508 339.742C466.156 339.469 465.961 339 465.922 338.336C465.922 337.633 466.176 336.969 466.684 336.344C467.191 335.719 467.855 335.172 468.676 334.703C470.355 333.805 472.074 333.355 473.832 333.355C475.629 333.355 477.016 333.551 477.992 333.941C479.008 334.332 479.867 334.859 480.57 335.523C482.055 336.93 482.797 338.414 482.797 339.977C482.836 341.539 482.66 343.121 482.27 344.723C481.918 346.324 481.488 347.906 480.98 349.469C480.473 350.992 479.965 352.457 479.457 353.863C478.949 355.23 478.617 356.246 478.461 356.91C478.148 358.277 478.031 359.137 478.109 359.488C479.047 358.668 479.613 357.867 479.809 357.086L482.094 352.75C487.172 343.609 492.133 337.555 496.977 334.586C498.383 333.766 500.062 333.355 502.016 333.355C504.008 333.355 505.609 334.059 506.82 335.465C508.031 336.832 508.656 338.355 508.695 340.035C508.773 341.715 508.656 343.121 508.344 344.254C508.07 345.348 507.641 346.383 507.055 347.359C505.766 349.547 504.203 350.641 502.367 350.641C501.859 350.641 501.391 350.465 500.961 350.113L499.672 349C498.383 347.867 497.133 347.301 495.922 347.301C494.75 347.301 493.305 348.082 491.586 349.645C489.906 351.207 488.148 353.219 486.312 355.68C480.141 363.844 475.102 372.984 471.195 383.102L468.617 389.898C467.953 391.578 467.367 392.789 466.859 393.531C466.352 394.234 465.59 394.586 464.574 394.586C463.598 394.586 462.602 394.391 461.586 394C460.609 393.648 459.73 393.18 458.949 392.594ZM541.801 378.648C542.934 378.648 543.5 379.41 543.5 380.934C543.5 382.223 543.109 383.473 542.328 384.684C541.273 386.949 539.164 389.098 536 391.129C532.406 393.434 528.793 394.586 525.16 394.586C518.871 394.586 514.887 391.773 513.207 386.148C511.215 379.469 514.203 365.309 522.172 343.668C517.68 343.277 515.238 342.496 514.848 341.324C514.73 340.973 514.672 340.602 514.672 340.211C514.672 339.781 514.848 339.293 515.199 338.746C515.59 338.199 516.078 337.672 516.664 337.164C518.031 336.031 519.418 335.465 520.824 335.465H525.453C529.672 325.582 532.68 319.957 534.477 318.59C535.336 317.965 536.293 317.652 537.348 317.652C538.402 317.652 539.281 317.789 539.984 318.062C540.688 318.336 541.312 318.727 541.859 319.234C543.109 320.406 543.734 321.715 543.734 323.16C543.734 323.941 543.5 324.84 543.031 325.855L538.695 335.289H540.102C542.523 335.289 544.477 335.27 545.961 335.23C545.961 335.23 547.074 335.211 549.301 335.172C550.043 335.133 550.961 335.113 552.055 335.113C553.188 335.113 553.754 335.523 553.754 336.344C553.754 341.5 547.66 344.078 535.473 344.078H535.004L531.02 354.391C526.527 366.578 524.281 375.113 524.281 379.996C524.281 381.363 524.594 382.438 525.219 383.219C525.844 383.961 527.016 384.332 528.734 384.332C530.453 384.332 532.016 384.039 533.422 383.453C534.828 382.867 536.059 382.223 537.113 381.52C538.168 380.777 539.066 380.113 539.809 379.527C540.59 378.941 541.254 378.648 541.801 378.648Z" fill="#7CA2F3"/>
<path d="M441 161.5C441 218.711 394.836 265 338 265C281.164 265 235 218.711 235 161.5C235 104.289 281.164 58 338 58C394.836 58 441 104.289 441 161.5Z" stroke="#7CA2F3" stroke-width="24"/>
<rect x="326" y="10" width="25" height="89" rx="12.5" fill="#7CA2F3"/>
<rect x="293" y="25" width="25" height="89" rx="12.5" transform="rotate(-90 293 25)" fill="#7CA2F3"/>
<rect x="107" y="115" width="25" height="98" rx="12.5" transform="rotate(-90 107 115)" fill="#7CA2F3"/>
<rect x="94" y="174" width="25" height="98" rx="12.5" transform="rotate(-90 94 174)" fill="#7CA2F3"/>
<rect x="109" y="231" width="25" height="98" rx="12.5" transform="rotate(-90 109 231)" fill="#7CA2F3"/>
<rect x="230" y="173" width="25" height="46" rx="12.5" transform="rotate(-90 230 173)" fill="#7CA2F3"/>
<rect x="400" y="174" width="25" height="46" rx="12.5" transform="rotate(-90 400 174)" fill="#7CA2F3"/>
<rect x="325" y="223" width="25" height="46" rx="12.5" fill="#7CA2F3"/>
<rect x="373" y="213.678" width="25" height="46" rx="12.5" transform="rotate(-45 373 213.678)" fill="#7CA2F3"/>
<rect x="253" y="93.6777" width="25" height="46" rx="12.5" transform="rotate(-45 253 93.6777)" fill="#7CA2F3"/>
<rect x="284.527" y="196" width="25" height="46" rx="12.5" transform="rotate(45 284.527 196)" fill="#7CA2F3"/>
<ellipse cx="337.5" cy="161.5" rx="25.5" ry="24.5" fill="#7CA2F3"/>
<path d="M351.243 163.02L337.002 150.056C333.34 146.723 333.555 140.897 337.453 137.843L375.92 107.703C377.328 106.6 379.065 106 380.854 106H382.275C384.419 106 386.473 106.861 387.977 108.389L389.702 110.141C391.175 111.638 392 113.653 392 115.753V119.862C392 121.567 391.456 123.227 390.446 124.6L363.075 161.841C360.262 165.668 354.755 166.216 351.243 163.02Z" fill="#7CA2F3"/>
</svg>
